<svg width="14" height="14" viewBox="0 0 14 14" fill="none" xmlns="http://www.w3.org/2000/svg">
<path d="M7.24527 11.8107C7.09353 11.7258 6.90857 11.7258 6.75683 11.8107L3.24464 13.7767C2.87233 13.9851 2.42686 13.6614 2.51001 13.2429L3.29443 9.2951C3.32832 9.12454 3.27116 8.94862 3.14349 8.83056L0.188436 6.09783C-0.124815 5.80815 0.0453429 5.28445 0.46904 5.23422L4.46601 4.76031C4.63869 4.73984 4.78833 4.63112 4.86116 4.47321L6.54702 0.818319C6.72573 0.430883 7.27637 0.430884 7.45508 0.818321L9.14089 4.47321C9.21373 4.63111 9.36337 4.73984 9.53605 4.76031L13.533 5.23422C13.9567 5.28446 14.1269 5.80815 13.8136 6.09783L10.8586 8.83056C10.7309 8.94862 10.6738 9.12454 10.7077 9.29509L11.4921 13.2429C11.5752 13.6614 11.1297 13.9851 10.7574 13.7767L7.24527 11.8107Z" fill="#FBBF24"/>
</svg>
