<svg xmlns="http://www.w3.org/2000/svg" width="25" height="23" viewBox="0 0 25 23" fill="none">
  <path d="M9.125 21.3691V16.1372C9.125 15.0326 10.0204 14.1372 11.125 14.1372H13.875C14.9796 14.1372 15.875 15.0326 15.875 16.1372V21.7497" stroke="white" stroke-width="1.5"/>
  <path d="M0.739924 10.8227C0.436257 11.1044 0.418454 11.579 0.700161 11.8826C0.981868 12.1863 1.45641 12.2041 1.76008 11.9224L0.739924 10.8227ZM12.337 1.0874L12.839 0.530258L12.3296 0.07118L11.8269 0.537563L12.337 1.0874ZM23.2479 11.9297C23.5556 12.207 24.0299 12.1824 24.3071 11.8747C24.5844 11.567 24.5598 11.0927 24.2521 10.8154L23.2479 11.9297ZM3.43478 8.65003V19.7499H4.93478V8.65003H3.43478ZM6.18478 22.4999H18.8152V20.9999H6.18478V22.4999ZM21.5652 19.7499V8.72781H20.0652V19.7499H21.5652ZM1.76008 11.9224L12.847 1.63724L11.8269 0.537563L0.739924 10.8227L1.76008 11.9224ZM11.8349 1.64455L23.2479 11.9297L24.2521 10.8154L12.839 0.530258L11.8349 1.64455ZM18.8152 22.4999C20.334 22.4999 21.5652 21.2687 21.5652 19.7499H20.0652C20.0652 20.4403 19.5056 20.9999 18.8152 20.9999V22.4999ZM3.43478 19.7499C3.43478 21.2687 4.666 22.4999 6.18478 22.4999V20.9999C5.49443 20.9999 4.93478 20.4403 4.93478 19.7499H3.43478Z" fill="white"/>
</svg>