<svg width="49" height="48" viewBox="0 0 49 48" fill="none" xmlns="http://www.w3.org/2000/svg">
<!-- <circle cx="24.5" cy="24" r="20" fill="#C13584"/> -->
<path d="M24.5 14.1622C27.7041 14.1622 28.0837 14.1744 29.349 14.2321C30.519 14.2855 31.1544 14.481 31.5773 14.6453C32.1374 14.863 32.5371 15.123 32.957 15.5429C33.377 15.9629 33.637 16.3626 33.8547 16.9227C34.019 17.3456 34.2145 17.981 34.2679 19.1509C34.3256 20.4163 34.3378 20.7958 34.3378 23.9999C34.3378 27.2041 34.3256 27.5836 34.2679 28.849C34.2145 30.019 34.019 30.6543 33.8547 31.0772C33.637 31.6373 33.377 32.0371 32.9571 32.457C32.5371 32.8769 32.1374 33.1369 31.5773 33.3546C31.1544 33.519 30.519 33.7144 29.349 33.7678C28.0839 33.8255 27.7044 33.8378 24.5 33.8378C21.2956 33.8378 20.9162 33.8255 19.651 33.7678C18.481 33.7144 17.8456 33.519 17.4227 33.3546C16.8626 33.1369 16.4629 32.8769 16.043 32.457C15.6231 32.0371 15.363 31.6373 15.1453 31.0772C14.981 30.6543 14.7855 30.019 14.7321 28.849C14.6744 27.5836 14.6622 27.2041 14.6622 23.9999C14.6622 20.7958 14.6744 20.4163 14.7321 19.1509C14.7855 17.981 14.981 17.3456 15.1453 16.9227C15.363 16.3626 15.623 15.9629 16.043 15.543C16.4629 15.123 16.8626 14.863 17.4227 14.6453C17.8456 14.481 18.481 14.2855 19.651 14.2321C20.9163 14.1744 21.2959 14.1622 24.5 14.1622ZM24.5 12C21.241 12 20.8323 12.0138 19.5524 12.0722C18.2752 12.1305 17.4028 12.3333 16.6395 12.63C15.8504 12.9366 15.1812 13.3469 14.5141 14.0141C13.8469 14.6812 13.4366 15.3504 13.13 16.1395C12.8333 16.9028 12.6305 17.7751 12.5722 19.0524C12.5138 20.3323 12.5 20.741 12.5 23.9999C12.5 27.259 12.5138 27.6676 12.5722 28.9475C12.6305 30.2248 12.8333 31.0971 13.13 31.8604C13.4366 32.6495 13.8469 33.3187 14.5141 33.9859C15.1812 34.653 15.8504 35.0633 16.6395 35.3699C17.4028 35.6666 18.2752 35.8694 19.5524 35.9277C20.8323 35.9861 21.241 35.9999 24.5 35.9999C27.759 35.9999 28.1677 35.9861 29.4476 35.9277C30.7248 35.8694 31.5972 35.6666 32.3605 35.3699C33.1496 35.0633 33.8188 34.653 34.4859 33.9859C35.153 33.3187 35.5634 32.6495 35.87 31.8604C36.1667 31.0971 36.3695 30.2248 36.4278 28.9475C36.4862 27.6676 36.5 27.259 36.5 23.9999C36.5 20.741 36.4862 20.3323 36.4278 19.0524C36.3695 17.7751 36.1667 16.9028 35.87 16.1395C35.5634 15.3504 35.153 14.6812 34.4859 14.0141C33.8188 13.3469 33.1496 12.9366 32.3605 12.63C31.5972 12.3333 30.7248 12.1305 29.4476 12.0722C28.1677 12.0138 27.759 12 24.5 12Z" fill="white"/>
<path d="M24.5059 17.8438C21.1026 17.8438 18.3438 20.6026 18.3438 24.0059C18.3438 27.4092 21.1026 30.168 24.5059 30.168C27.9092 30.168 30.6681 27.4092 30.6681 24.0059C30.6681 20.6026 27.9092 17.8438 24.5059 17.8438ZM24.5059 28.0059C22.2968 28.0059 20.5059 26.215 20.5059 24.0059C20.5059 21.7967 22.2968 20.0059 24.5059 20.0059C26.7151 20.0059 28.5059 21.7967 28.5059 24.0059C28.5059 26.215 26.7151 28.0059 24.5059 28.0059Z" fill="white"/>
<path d="M32.3527 17.5963C32.3527 18.3915 31.7079 19.0363 30.9126 19.0363C30.1174 19.0363 29.4727 18.3915 29.4727 17.5963C29.4727 16.801 30.1174 16.1562 30.9126 16.1562C31.7079 16.1562 32.3527 16.801 32.3527 17.5963Z" fill="white"/>
</svg>
