<svg width="49" height="48" viewBox="0 0 49 48" fill="none" xmlns="http://www.w3.org/2000/svg">
<!-- <circle cx="24.5" cy="24" r="20" fill="#0077B5"/> -->
<path fill-rule="evenodd" clip-rule="evenodd" d="M19.2747 14.2839C19.2747 15.529 18.3267 16.5366 16.8442 16.5366C15.4194 16.5366 14.4713 15.529 14.5007 14.2839C14.4713 12.9783 15.4193 12 16.8726 12C18.3267 12 19.2463 12.9783 19.2747 14.2839ZM14.6199 32.8191V18.3162H19.1271V32.8181H14.6199V32.8191Z" fill="white"/>
<path fill-rule="evenodd" clip-rule="evenodd" d="M22.7403 22.9441C22.7403 21.1352 22.6807 19.593 22.6211 18.3177H26.5361L26.7442 20.3045H26.8331C27.4263 19.3849 28.9089 17.9922 31.3111 17.9922C34.2762 17.9922 36.5005 19.9497 36.5005 24.2186V32.8205H31.9932V24.7833C31.9932 22.9139 31.3413 21.6394 29.7102 21.6394C28.4642 21.6394 27.7234 22.4995 27.4273 23.3292C27.3081 23.6263 27.2494 24.0407 27.2494 24.4569V32.8205H22.7421V22.9441H22.7403Z" fill="white"/>
</svg>
