<svg xmlns="http://www.w3.org/2000/svg" clip-rule="evenodd" fill-rule="evenodd" image-rendering="optimizeQuality" shape-rendering="geometricPrecision" text-rendering="geometricPrecision" viewBox="0 0 2764.95 1902.29" style="fill: rgb(0, 0, 0);" original_string_length="2603"><defs><linearGradient gradientUnits="userSpaceOnUse" id="__id114_s8649twrbb" x1="2554.2" x2="1002.24" y1="137.67" y2="2401.55"><stop offset="0" style="stop-color: rgb(140, 82, 255);"/><stop offset="1" style="stop-color: rgb(247, 173, 175);"/></linearGradient></defs><g><path d="M1178.1 1507.57l1405.93 0c29.9,-41.26 56.66,-84.99 79.77,-130.79 0.44,-0.86 0.86,-1.75 1.3,-2.61 9.7,-19.37 18.74,-39.13 27.11,-59.2 17.62,-42.18 32.28,-85.85 43.69,-130.78l-1744.51 0 -46.68 80.86 -28.84 49.92 -104.53 0 -28.83 -49.92 -46.69 -80.86 -186.7 0 -46.69 80.86 -46.68 80.83 46.68 80.83 46.69 80.87 186.7 0 46.69 -80.87 28.83 -49.92 104.53 0 28.84 49.92 46.68 80.87 186.7 0zm-213.81 -920.25l28.86 49.95 46.66 80.85 1696.09 0c-11.42,-44.93 -26.07,-88.63 -43.69,-130.8 -8.36,-20.09 -17.41,-39.83 -27.11,-59.2 -0.45,-0.87 -0.86,-1.72 -1.34,-2.58 -23.08,-45.83 -49.83,-89.55 -79.76,-130.8l-1544.19 0 -46.66 80.84 -28.86 49.96 -104.57 0 -28.83 -49.96 -46.65 -80.84 -186.7 0 -46.69 80.84 -46.69 80.84 46.69 80.85 46.69 80.85 186.7 0 46.65 -80.85 28.83 -49.95 104.57 0 0 0zm1329.4 -456.52c-141.11,-83.08 -305.17,-130.8 -479.85,-130.8l-353.67 0 -46.69 80.84 -28.83 49.95 -104.53 0 -75.52 -130.8 -186.7 0 -46.69 80.84 -28.83 49.95 -17.83 30.88 17.83 30.9 28.83 49.96 46.69 80.84 186.7 0 46.68 -80.84 28.84 -49.96 104.53 0 28.83 49.96 46.69 80.84 1066.74 0c-42.47,-48.13 -89.7,-92 -140.96,-130.8 -29.49,-22.32 -60.27,-42.97 -92.25,-61.78l0 0zm-1920.29 820.34l-46.69 -80.84 -46.66 -80.87 -186.69 0 -46.69 80.87 -46.67 80.84 46.67 80.84 46.69 80.86 186.69 0 46.66 -80.86 46.69 -80.84 0 0zm211.14 627.77l-476.83 0 -46.69 80.83 -46.66 80.87 46.66 80.83 46.69 80.86 476.83 0 46.66 -80.86 28.83 -49.92 104.53 0 28.83 49.92 46.69 80.86 973.75 0c174.68,0 338.75,-47.73 479.85,-130.78 31.98,-18.83 62.77,-39.48 92.25,-61.82 51.26,-38.8 98.48,-82.64 140.96,-130.78l-1686.81 0 -46.69 80.83 -28.83 49.95 -104.53 0 -28.83 -49.95 -46.66 -80.83 0 0zm651.49 -789.47l-450.64 0 -46.69 80.87 -28.83 49.94 -17.83 30.9 17.83 30.89 28.83 49.95 46.69 80.86 450.64 0 46.69 -80.86 28.83 -49.95 104.56 0 -17.85 -30.89 46.68 80.84 46.66 80.86 1259.52 0c7.38,-42.74 11.9,-86.37 13.35,-130.81 0.33,-10.23 0.48,-20.56 0.48,-30.89 0,-10.32 -0.15,-20.62 -0.48,-30.9 -1.45,-44.41 -5.96,-88.07 -13.35,-130.8l-1259.52 0 -46.66 80.87 -46.68 80.84 17.85 -30.9 -104.56 0 -28.83 -49.94 -46.69 -80.87 0 0z" style="fill: url(&quot;#__id114_s8649twrbb&quot;);"/></g></svg>