<svg width="32" height="32" viewBox="0 0 32 32" fill="none" xmlns="http://www.w3.org/2000/svg">
<path d="M30.6667 9.33325V1.33325M30.6667 1.33325H22.6667M30.6667 1.33325L21.3333 10.6666M29.3333 22.5599V26.5599C29.3349 26.9313 29.2588 27.2988 29.11 27.639C28.9613 27.9793 28.7431 28.2847 28.4695 28.5357C28.1958 28.7868 27.8728 28.9779 27.521 29.0969C27.1692 29.2158 26.7965 29.26 26.4267 29.2266C22.3238 28.7808 18.3827 27.3788 14.92 25.1333C11.6985 23.0861 8.96713 20.3548 6.92001 17.1333C4.66665 13.6549 3.26434 9.69458 2.82668 5.57325C2.79336 5.20454 2.83718 4.83293 2.95535 4.48208C3.07351 4.13124 3.26344 3.80884 3.51303 3.53541C3.76263 3.26199 4.06642 3.04353 4.40507 2.89395C4.74372 2.74436 5.1098 2.66693 5.48001 2.66659H9.48001C10.1271 2.66022 10.7544 2.88936 11.245 3.3113C11.7357 3.73323 12.0561 4.31918 12.1467 4.95992C12.3155 6.24001 12.6286 7.49689 13.08 8.70659C13.2594 9.18382 13.2982 9.70247 13.1919 10.2011C13.0855 10.6997 12.8385 11.1574 12.48 11.5199L10.7867 13.2133C12.6848 16.5513 15.4486 19.3152 18.7867 21.2133L20.48 19.5199C20.8425 19.1614 21.3002 18.9144 21.7988 18.808C22.2975 18.7017 22.8161 18.7405 23.2933 18.9199C24.503 19.3713 25.7599 19.6844 27.04 19.8533C27.6877 19.9446 28.2792 20.2709 28.7021 20.7699C29.1249 21.269 29.3496 21.906 29.3333 22.5599Z" stroke="#6366f1" stroke-width="3" stroke-linecap="round" stroke-linejoin="round"/>
</svg>
